<svg xmlns="http://www.w3.org/2000/svg" xmlns:xlink="http://www.w3.org/1999/xlink" width="63.59" height="74.091" viewBox="0 0 63.59 74.091">
  <defs>
    <clipPath id="clip-path">
      <rect id="Rectangle_38" data-name="Rectangle 38" width="63.59" height="74.091" fill="#fff"/>
    </clipPath>
  </defs>
  <g id="Group_53" data-name="Group 53" transform="translate(0 -0.001)">
    <g id="Group_52" data-name="Group 52" transform="translate(0 0.001)" clip-path="url(#clip-path)">
      <path id="Path_143" data-name="Path 143" d="M67.465,63.987A2.017,2.017,0,1,0,69.352,66a1.917,1.917,0,0,0-1.887-2.013m.062,3.05a.653.653,0,0,0,.692-.594h.5a1.2,1.2,0,0,1-1.2,1.079A1.409,1.409,0,0,1,66.109,66a1.374,1.374,0,0,1,1.4-1.508,1.165,1.165,0,0,1,1.217,1.038h-.5a.684.684,0,0,0-.706-.553c-.58,0-.878.435-.878,1.01,0,.6.332,1.051.892,1.051" transform="translate(-14.493 -14.142)" fill="#fff"/>
      <path id="Path_144" data-name="Path 144" d="M64.486,32.4H62.027v4.126h2.459a1.119,1.119,0,0,0,1.038-.41,1.767,1.767,0,0,0,.246-.929V33.742a1.764,1.764,0,0,0-.246-.929,1.119,1.119,0,0,0-1.038-.411" transform="translate(-13.709 -7.162)" fill="#fff"/>
      <path id="Path_145" data-name="Path 145" d="M40,32.158a3.122,3.122,0,0,0-1.885.369,1.152,1.152,0,0,0-.411.888v7.351a1.181,1.181,0,0,0,.411.915A3.122,3.122,0,0,0,40,42.05a3.127,3.127,0,0,0,1.886-.369,1.182,1.182,0,0,0,.41-.915V33.415a1.154,1.154,0,0,0-.41-.888A3.127,3.127,0,0,0,40,32.158" transform="translate(-8.334 -7.108)" fill="#fff"/>
      <path id="Path_146" data-name="Path 146" d="M63.59,32.658c-.018-6.057-1.105-13.2-8.877-24.344C45.474-4.964,29.7,1.114,25.09,3.3,18.109,6.577,8.678,17.945,6.9,20.132H20.657a.842.842,0,0,1,.984.983v3.307a.842.842,0,0,1-.984.984H16.64V38.823a.842.842,0,0,1-.984.984H11.229a1.028,1.028,0,0,1-.751-.232,1.032,1.032,0,0,1-.232-.752V25.406H6.229a1.033,1.033,0,0,1-.752-.232,1.031,1.031,0,0,1-.232-.752V22.945A55.8,55.8,0,0,0,.267,38.707a22.133,22.133,0,0,0,.548,9.21c1.976,7.924,7.245,16.166,12.469,19.929,11.524,8.306,23.381,8.327,34.289.065A35.389,35.389,0,0,0,53.921,61.7H47.758a7.849,7.849,0,0,1-5.069-1.366,5.143,5.143,0,0,1-1.653-4.208v-8.5A5.185,5.185,0,0,1,42.689,43.4a7.8,7.8,0,0,1,5.069-1.38h6.668A.843.843,0,0,1,55.41,43v3.307a.843.843,0,0,1-.984.984H48.932a1.936,1.936,0,0,0-1.257.341,1.259,1.259,0,0,0-.41,1.025v6.5a1.178,1.178,0,0,0,.41,1,2.058,2.058,0,0,0,1.257.314h5.493a.843.843,0,0,1,.984.984V59.68C63.357,48.2,63.6,34.533,63.59,32.658M21.735,46.311a.842.842,0,0,1-.983.984H16.734V60.712a.842.842,0,0,1-.983.984H11.323a1.031,1.031,0,0,1-.752-.232,1.032,1.032,0,0,1-.232-.752V47.3H6.322a1.035,1.035,0,0,1-.752-.232,1.031,1.031,0,0,1-.232-.752V43a1.028,1.028,0,0,1,.232-.751,1.032,1.032,0,0,1,.752-.232H20.752a.842.842,0,0,1,.983.983ZM38.411,46.2a.842.842,0,0,1-.985.983H29.884v2.1h5.329a.842.842,0,0,1,.984.984V53.2a.842.842,0,0,1-.984.984H29.884v2.35h7.542a.843.843,0,0,1,.985.984v3.2a.843.843,0,0,1-.985.984H24.747a.843.843,0,0,1-.985-.984V43a.842.842,0,0,1,.985-.983H37.426a.842.842,0,0,1,.985.983Zm1.731-11.559a6.711,6.711,0,0,1-.368,2.282,3.813,3.813,0,0,1-1.312,1.749,7.024,7.024,0,0,1-2.6,1.134,17.84,17.84,0,0,1-4.195.41,18.017,18.017,0,0,1-4.208-.41,7.026,7.026,0,0,1-2.61-1.134,3.813,3.813,0,0,1-1.312-1.749,6.692,6.692,0,0,1-.369-2.282V25.324a6.7,6.7,0,0,1,.369-2.282,3.9,3.9,0,0,1,1.312-1.762,6.866,6.866,0,0,1,2.61-1.147,17.97,17.97,0,0,1,4.208-.411,17.793,17.793,0,0,1,4.195.411,6.863,6.863,0,0,1,2.6,1.147,3.9,3.9,0,0,1,1.312,1.762,6.717,6.717,0,0,1,.368,2.282Zm11.374-.355H48.373v4.536a.842.842,0,0,1-.984.984H43.154a.842.842,0,0,1-.984-.984V21.115a.842.842,0,0,1,.984-.983h8.362q3.717,0,5.083,1.475a5.445,5.445,0,0,1,1.366,3.853v3.5A5.445,5.445,0,0,1,56.6,32.811q-1.366,1.477-5.083,1.476m1.456,20.068a2.5,2.5,0,1,1,2.5-2.5,2.5,2.5,0,0,1-2.5,2.5" transform="translate(0 -0.001)" fill="#fff"/>
    </g>
  </g>
</svg>
