<?xml version="1.0" encoding="utf-8"?>
<!-- Generator: Adobe Illustrator 27.5.0, SVG Export Plug-In . SVG Version: 6.00 Build 0)  -->
<svg version="1.1" id="Group_13" xmlns="http://www.w3.org/2000/svg" xmlns:xlink="http://www.w3.org/1999/xlink" x="0px" y="0px"
	 viewBox="0 0 90 63.4" style="enable-background:new 0 0 90 63.4;" xml:space="preserve">
<style type="text/css">
	.st00{fill:#1D1D1B;}
	.st11{fill:#3F3F3F;}
</style>
<polygon class="st00" points="12.4,19.5 7.8,30.3 3.1,19.5 0,19.5 6.8,34.4 8.6,34.4 15.1,19.5 "/>
<path class="st00" d="M20.3,19.5l-6.6,14.9h2.7l1.4-3.3h7.4l1.4,3.3h3.1L23,19.5H20.3z M18.9,28.5l2.6-6.1l2.5,6.1H18.9z"/>
<polygon class="st00" points="55.8,34.4 55.8,22.2 61.1,22.2 61.1,19.5 47.7,19.5 47.7,22.2 53,22.2 53,34.4 "/>
<polygon class="st00" points="31.8,22.1 31.8,25.6 31.8,27.9 31.8,28.2 41.8,28.2 41.8,31.8 34.4,31.8 34.4,30.1 34.4,30.1 
	31.8,31.2 31.8,31.8 31.8,34.4 41.8,34.4 44.5,34.4 44.5,31.8 44.5,28.2 44.5,25.6 41.8,25.6 34.5,25.6 34.5,22.1 41.9,22.1 
	41.9,23.8 41.9,23.8 44.5,22.8 44.5,22.1 44.5,19.5 31.8,19.5 "/>
<polygon class="st00" points="34.5,0 31.8,0 31.8,5.8 34.5,4.7 "/>
<polygon class="st00" points="74.1,12.1 64.7,12.1 64.7,8.4 70.1,8.4 70.1,5.9 64.7,5.9 64.7,2.5 74,2.5 74,0 62,0 62,14.9 
	74.1,14.9 "/>
<polygon class="st00" points="48.6,8.4 55.6,14.9 60,14.9 51.3,7 59,0 55.1,0 48.6,6.2 48.6,0 45.9,0 45.9,14.9 46,14.9 48.6,13.9 
	"/>
<polygon class="st00" points="39.9,14.9 42.6,14.9 42.6,12.2 42.6,0 39.9,0 39.9,12.2 34.5,12.2 34.5,7.6 34.5,7.6 31.8,8.6 
	31.8,12.2 31.8,14.9 34.5,14.9 "/>
<path class="st00" d="M18.6,13.8V9.2h7.3h2.6h0.1V0h-0.1h-2.6h-7.3h-2.7v2.7v3.9v2.7V15l0,0L18.6,13.8z M18.6,2.7h7.3v3.9h-7.3
	C18.6,6.6,18.6,2.7,18.6,2.7z"/>
<polygon class="st00" points="12.7,14.9 12.7,12.3 12.7,8.7 12.7,6.1 10,6.1 2.7,6.1 2.7,2.6 10.1,2.6 10.1,4.3 10.1,4.3 12.7,3.3 
	12.7,2.6 12.7,0 0,0 0,2.6 0,6.1 0,8.4 0,8.7 10,8.7 10,12.3 2.6,12.3 2.6,10.6 2.6,10.6 0,11.6 0,12.3 0,14.9 10,14.9 "/>
<path class="st00" d="M80,14.9V9.2h2.5l3.6,5.7H90l-3.8-5.7h1.1H90l0,0V0l0,0h-2.6H80h-2.7v2.7v3.9v2.7V15l0,0H80V14.9z M80,2.6h7.3
	v4.2H80V2.6z"/>
<polygon class="st11" points="90,39 90,26 79.3,19.5 62.6,29.6 62.6,29.8 62.6,42.6 62.6,42.8 68.8,46.6 62.6,50.4 45.9,40.3 
	45.9,53.3 62.6,63.4 79.3,53.3 79.3,52.9 79.3,40.3 79.3,39.9 73.2,36.2 79.3,32.5 "/>
<polygon class="st00" points="45.9,40.3 62.6,50.4 62.6,63.4 45.9,53.3 "/>
<polyline class="st00" points="62.6,29.6 62.7,29.7 79.3,39.9 68.8,46.6 62.6,42.8 "/>
<polygon class="st00" points="79.3,19.5 90,26 90,39 79.3,32.5 "/>
</svg>
