<?xml version="1.0" encoding="utf-8"?>
<!-- Generator: Adobe Illustrator 27.5.0, SVG Export Plug-In . SVG Version: 6.00 Build 0)  -->
<svg version="1.1" id="Laag_1" xmlns="http://www.w3.org/2000/svg" xmlns:xlink="http://www.w3.org/1999/xlink" x="0px" y="0px"
	 viewBox="0 0 120.5 52.8" style="enable-background:new 0 0 120.5 52.8;" xml:space="preserve">
<style type="text/css">
	.st0{enable-background:new;}
	.st1{fill:#FFFFFF;}
</style>
<path d="M108,52.8H12.6C5.6,52.8,0,47.2,0,40.2V12.6C0,5.6,5.6,0,12.6,0H108c6.9,0,12.6,5.6,12.6,12.6v27.7
	C120.5,47.2,114.9,52.8,108,52.8z"/>
<g class="st0">
	<path class="st1" d="M26.6,34.4V11.7h3v20.1h11.2v2.7H26.6z"/>
	<path class="st1" d="M43,26.2c0-3.1,0.8-5.3,2.5-6.8c1.4-1.2,3.2-1.8,5.2-1.8c2.3,0,4.1,0.7,5.6,2.2c1.4,1.5,2.2,3.5,2.2,6.2
		c0,2.1-0.3,3.8-1,5c-0.6,1.2-1.6,2.2-2.8,2.8c-1.2,0.7-2.5,1-4,1c-2.3,0-4.2-0.7-5.6-2.2C43.7,31.1,43,29,43,26.2z M45.9,26.2
		c0,2.1,0.5,3.7,1.4,4.7c0.9,1.1,2.1,1.6,3.5,1.6c1.4,0,2.5-0.5,3.5-1.6c0.9-1.1,1.4-2.7,1.4-4.8c0-2-0.5-3.6-1.4-4.6
		c-0.9-1.1-2.1-1.6-3.5-1.6c-1.4,0-2.6,0.5-3.5,1.6C46.4,22.5,45.9,24.1,45.9,26.2z"/>
	<path class="st1" d="M61.3,35.8l2.7,0.4c0.1,0.8,0.4,1.5,0.9,1.8c0.7,0.5,1.6,0.8,2.8,0.8c1.3,0,2.3-0.3,3-0.8s1.2-1.2,1.4-2.2
		c0.1-0.6,0.2-1.8,0.2-3.6c-1.2,1.4-2.7,2.2-4.6,2.2c-2.3,0-4-0.8-5.3-2.5c-1.2-1.6-1.9-3.6-1.9-5.9c0-1.6,0.3-3,0.9-4.4
		c0.6-1.3,1.4-2.4,2.5-3.1c1.1-0.7,2.4-1.1,3.8-1.1c1.9,0,3.6,0.8,4.8,2.4v-2h2.6v14.3c0,2.6-0.3,4.4-0.8,5.5
		c-0.5,1.1-1.4,1.9-2.5,2.5c-1.1,0.6-2.5,0.9-4.2,0.9c-2,0-3.6-0.4-4.8-1.3C61.8,38.9,61.2,37.6,61.3,35.8z M63.6,25.9
		c0,2.2,0.4,3.7,1.3,4.7c0.9,1,1.9,1.5,3.2,1.5c1.3,0,2.4-0.5,3.2-1.5c0.9-1,1.3-2.5,1.3-4.7c0-2-0.4-3.5-1.3-4.6
		c-0.9-1-2-1.5-3.2-1.5c-1.2,0-2.3,0.5-3.2,1.5C64,22.4,63.6,23.9,63.6,25.9z"/>
	<path class="st1" d="M78.4,26.2c0-3.1,0.8-5.3,2.5-6.8c1.4-1.2,3.2-1.8,5.2-1.8c2.3,0,4.1,0.7,5.6,2.2c1.4,1.5,2.2,3.5,2.2,6.2
		c0,2.1-0.3,3.8-1,5c-0.6,1.2-1.6,2.2-2.8,2.8c-1.2,0.7-2.5,1-4,1c-2.3,0-4.2-0.7-5.6-2.2C79.2,31.1,78.4,29,78.4,26.2z M81.3,26.2
		c0,2.1,0.5,3.7,1.4,4.7c0.9,1.1,2.1,1.6,3.5,1.6c1.4,0,2.5-0.5,3.5-1.6c0.9-1.1,1.4-2.7,1.4-4.8c0-2-0.5-3.6-1.4-4.6
		c-0.9-1.1-2.1-1.6-3.5-1.6c-1.4,0-2.6,0.5-3.5,1.6C81.8,22.5,81.3,24.1,81.3,26.2z"/>
</g>
</svg>
